<?xml version="1.0" encoding="utf-8"?><svg viewBox="0 0 45 45" xmlns="http://www.w3.org/2000/svg" xmlns:xlink="http://www.w3.org/1999/xlink"><style>:root>svg{display:none}:root>svg:target{display:block}</style><svg fill="none" viewBox="0 0 15 15" id="arrow-right" xmlns="http://www.w3.org/2000/svg"><path d="M11.225 6.357l-4.79-4.789L7.699.306l6.945 6.944-6.945 6.945-1.262-1.263 4.789-4.789H.357V6.357h10.868z" fill="#000"/></svg><svg fill="none" viewBox="0 0 10 15" id="arrow-right-simple" xmlns="http://www.w3.org/2000/svg"><path d="M6.188 7.343L0 1.632 1.768 0l7.955 7.343-7.956 7.343L0 13.055l6.188-5.712z" fill="#000"/></svg><svg fill="none" viewBox="0 0 8 13" id="arrow-right-simple-white" xmlns="http://www.w3.org/2000/svg"><g clip-path="url(#cclip0_1_839)"><path d="M2.828 6.364l4.95 4.95-1.414 1.414L0 6.364 6.364 0l1.414 1.414-4.95 4.95z" fill="#fff"/></g><defs><clipPath id="cclip0_1_839"><path fill="#fff" d="M0 0h8v13H0z"/></clipPath></defs></svg><svg fill="none" viewBox="0 0 14 13" id="arrow-right-white" xmlns="http://www.w3.org/2000/svg"><path d="M10.143 5.648l-4.47-4.47L6.852 0l6.481 6.482-6.481 6.481-1.179-1.178 4.47-4.47H0V5.648h10.143z" fill="#fff"/></svg><svg fill="none" viewBox="0 0 45 45" id="left-quote-gradient" xmlns="http://www.w3.org/2000/svg"><path fill-rule="evenodd" clip-rule="evenodd" d="M.102 44.936V22.895C.102 10.74 8.576.854 18.994.854v7.347c-6.945 0-12.595 6.592-12.595 14.694h12.595v22.04H.102zM44.183.854v7.347c-6.944 0-12.594 6.592-12.594 14.694h12.595v22.04H25.29v-22.04C25.291 10.74 33.766.854 44.184.854z" fill="url(#epaint0_linear_1_832)"/><defs><linearGradient id="epaint0_linear_1_832" x1="-8.416" y1="44.936" x2="49.704" y2="19.135" gradientUnits="userSpaceOnUse"><stop offset=".198" stop-color="#B16CEA"/><stop offset=".557" stop-color="#FF5E69"/><stop offset=".828" stop-color="#FF8A56"/><stop offset="1" stop-color="#FFA84B"/></linearGradient></defs></svg><svg fill="none" viewBox="0 0 30 21" id="mail" xmlns="http://www.w3.org/2000/svg"><path d="M1.481 0h26.667c.393 0 .77.123 1.048.342.278.219.434.515.434.825v18.666c0 .31-.156.607-.434.825a1.705 1.705 0 01-1.048.342H1.481c-.392 0-.77-.123-1.047-.342C.156 20.44 0 20.143 0 19.833V1.167C0 .857.156.56.434.342A1.705 1.705 0 011.48 0zm13.423 10.13l-9.5-6.352-1.918 1.778 11.437 7.647L26.154 5.55l-1.938-1.765-9.31 6.345h-.002z" fill="#424242" fill-opacity=".5"/></svg></svg>