<svg width="191" height="36" viewBox="0 0 191 36" fill="none" xmlns="http://www.w3.org/2000/svg">
<rect width="191" height="36" fill="url(#paint0_linear_5601_6)"/>
<path d="M64.2188 21.7734V23H58.5312V21.7734H64.2188ZM58.8281 11.625V23H57.3203V11.625H58.8281ZM74.1875 16.9531V17.6719C74.1875 18.526 74.0807 19.2917 73.8672 19.9688C73.6536 20.6458 73.3464 21.2214 72.9453 21.6953C72.5443 22.1693 72.0625 22.5312 71.5 22.7812C70.9427 23.0312 70.3177 23.1562 69.625 23.1562C68.9531 23.1562 68.3359 23.0312 67.7734 22.7812C67.2161 22.5312 66.7318 22.1693 66.3203 21.6953C65.9141 21.2214 65.599 20.6458 65.375 19.9688C65.151 19.2917 65.0391 18.526 65.0391 17.6719V16.9531C65.0391 16.099 65.1484 15.3359 65.3672 14.6641C65.5911 13.987 65.9062 13.4115 66.3125 12.9375C66.7188 12.4583 67.2005 12.0938 67.7578 11.8438C68.3203 11.5938 68.9375 11.4688 69.6094 11.4688C70.3021 11.4688 70.9271 11.5938 71.4844 11.8438C72.0469 12.0938 72.5286 12.4583 72.9297 12.9375C73.3359 13.4115 73.6458 13.987 73.8594 14.6641C74.0781 15.3359 74.1875 16.099 74.1875 16.9531ZM72.6953 17.6719V16.9375C72.6953 16.2604 72.625 15.6615 72.4844 15.1406C72.349 14.6198 72.1484 14.1823 71.8828 13.8281C71.6172 13.474 71.2917 13.2057 70.9062 13.0234C70.526 12.8411 70.0938 12.75 69.6094 12.75C69.1406 12.75 68.7161 12.8411 68.3359 13.0234C67.9609 13.2057 67.638 13.474 67.3672 13.8281C67.1016 14.1823 66.8958 14.6198 66.75 15.1406C66.6042 15.6615 66.5312 16.2604 66.5312 16.9375V17.6719C66.5312 18.3542 66.6042 18.9583 66.75 19.4844C66.8958 20.0052 67.1042 20.4453 67.375 20.8047C67.651 21.1589 67.9766 21.4271 68.3516 21.6094C68.7318 21.7917 69.1562 21.8828 69.625 21.8828C70.1146 21.8828 70.5495 21.7917 70.9297 21.6094C71.3099 21.4271 71.6302 21.1589 71.8906 20.8047C72.1562 20.4453 72.3568 20.0052 72.4922 19.4844C72.6276 18.9583 72.6953 18.3542 72.6953 17.6719ZM84.8516 17.3359V21.5C84.7109 21.7083 84.487 21.9427 84.1797 22.2031C83.8724 22.4583 83.4479 22.6823 82.9062 22.875C82.3698 23.0625 81.6771 23.1562 80.8281 23.1562C80.1354 23.1562 79.4974 23.0365 78.9141 22.7969C78.3359 22.5521 77.8333 22.1979 77.4062 21.7344C76.9844 21.2656 76.6562 20.6979 76.4219 20.0312C76.1927 19.3594 76.0781 18.599 76.0781 17.75V16.8672C76.0781 16.0182 76.1771 15.2604 76.375 14.5938C76.5781 13.9271 76.875 13.362 77.2656 12.8984C77.6562 12.4297 78.1354 12.0755 78.7031 11.8359C79.2708 11.5911 79.9219 11.4688 80.6562 11.4688C81.526 11.4688 82.2526 11.6198 82.8359 11.9219C83.4245 12.2188 83.8828 12.6302 84.2109 13.1562C84.5443 13.6823 84.7578 14.2812 84.8516 14.9531H83.3438C83.276 14.5417 83.1406 14.1667 82.9375 13.8281C82.7396 13.4896 82.4557 13.2188 82.0859 13.0156C81.7161 12.8073 81.2396 12.7031 80.6562 12.7031C80.1302 12.7031 79.6745 12.7995 79.2891 12.9922C78.9036 13.1849 78.5859 13.4609 78.3359 13.8203C78.0859 14.1797 77.8984 14.6146 77.7734 15.125C77.6536 15.6354 77.5938 16.2109 77.5938 16.8516V17.75C77.5938 18.4062 77.6693 18.9922 77.8203 19.5078C77.9766 20.0234 78.1979 20.4635 78.4844 20.8281C78.7708 21.1875 79.112 21.4609 79.5078 21.6484C79.9089 21.8359 80.3516 21.9297 80.8359 21.9297C81.3724 21.9297 81.8073 21.8854 82.1406 21.7969C82.474 21.7031 82.7344 21.5938 82.9219 21.4688C83.1094 21.3385 83.2526 21.2161 83.3516 21.1016V18.5547H80.7188V17.3359H84.8516ZM96.1094 16.9531V17.6719C96.1094 18.526 96.0026 19.2917 95.7891 19.9688C95.5755 20.6458 95.2682 21.2214 94.8672 21.6953C94.4661 22.1693 93.9844 22.5312 93.4219 22.7812C92.8646 23.0312 92.2396 23.1562 91.5469 23.1562C90.875 23.1562 90.2578 23.0312 89.6953 22.7812C89.138 22.5312 88.6536 22.1693 88.2422 21.6953C87.8359 21.2214 87.5208 20.6458 87.2969 19.9688C87.0729 19.2917 86.9609 18.526 86.9609 17.6719V16.9531C86.9609 16.099 87.0703 15.3359 87.2891 14.6641C87.513 13.987 87.8281 13.4115 88.2344 12.9375C88.6406 12.4583 89.1224 12.0938 89.6797 11.8438C90.2422 11.5938 90.8594 11.4688 91.5312 11.4688C92.224 11.4688 92.849 11.5938 93.4062 11.8438C93.9688 12.0938 94.4505 12.4583 94.8516 12.9375C95.2578 13.4115 95.5677 13.987 95.7812 14.6641C96 15.3359 96.1094 16.099 96.1094 16.9531ZM94.6172 17.6719V16.9375C94.6172 16.2604 94.5469 15.6615 94.4062 15.1406C94.2708 14.6198 94.0703 14.1823 93.8047 13.8281C93.5391 13.474 93.2135 13.2057 92.8281 13.0234C92.4479 12.8411 92.0156 12.75 91.5312 12.75C91.0625 12.75 90.638 12.8411 90.2578 13.0234C89.8828 13.2057 89.5599 13.474 89.2891 13.8281C89.0234 14.1823 88.8177 14.6198 88.6719 15.1406C88.526 15.6615 88.4531 16.2604 88.4531 16.9375V17.6719C88.4531 18.3542 88.526 18.9583 88.6719 19.4844C88.8177 20.0052 89.026 20.4453 89.2969 20.8047C89.5729 21.1589 89.8984 21.4271 90.2734 21.6094C90.6536 21.7917 91.0781 21.8828 91.5469 21.8828C92.0365 21.8828 92.4714 21.7917 92.8516 21.6094C93.2318 21.4271 93.5521 21.1589 93.8125 20.8047C94.0781 20.4453 94.2786 20.0052 94.4141 19.4844C94.5495 18.9583 94.6172 18.3542 94.6172 17.6719ZM102.352 11.625V23H100.867V11.625H102.352ZM106.008 11.625V12.8594H97.2188V11.625H106.008ZM108.344 11.625L111.297 17.3359L114.258 11.625H115.969L112.047 18.75V23H110.539V18.75L106.617 11.625H108.344ZM121.625 18.5391H118.586V17.3125H121.625C122.214 17.3125 122.69 17.2188 123.055 17.0312C123.419 16.8438 123.685 16.5833 123.852 16.25C124.023 15.9167 124.109 15.5365 124.109 15.1094C124.109 14.7188 124.023 14.3516 123.852 14.0078C123.685 13.6641 123.419 13.388 123.055 13.1797C122.69 12.9661 122.214 12.8594 121.625 12.8594H118.938V23H117.43V11.625H121.625C122.484 11.625 123.211 11.7734 123.805 12.0703C124.398 12.3672 124.849 12.7786 125.156 13.3047C125.464 13.8255 125.617 14.4219 125.617 15.0938C125.617 15.8229 125.464 16.4453 125.156 16.9609C124.849 17.4766 124.398 17.8698 123.805 18.1406C123.211 18.4062 122.484 18.5391 121.625 18.5391ZM134.75 21.7734V23H128.727V21.7734H134.75ZM129.031 11.625V23H127.523V11.625H129.031ZM133.953 16.5156V17.7422H128.727V16.5156H133.953ZM134.672 11.625V12.8594H128.727V11.625H134.672Z" fill="white"/>
<defs>
<linearGradient id="paint0_linear_5601_6" x1="95.5" y1="0" x2="95.5" y2="36" gradientUnits="userSpaceOnUse">
<stop stop-color="#FF8A56"/>
<stop offset="0.994792" stop-color="#FF5E69"/>
</linearGradient>
</defs>
</svg>
